<svg xmlns:xlink="http://www.w3.org/1999/xlink">

    <symbol viewBox="0 0 612 612" id="mail-icon" xmlns="http://www.w3.org/2000/svg">
        <defs>
            <g id="mail">
                <polygon points="612,83.454 0,83.454 0,139.09 306,389.454 612,139.09   "/>
                <polygon points="612,179.455 457.498,313.454 612,483.925   "/>
                <polygon points="612,528.546 430.903,333.817 306,437.886 180.818,333.817 0,528.546   "/>
                <polygon points="0,479.835 150.274,312.897 0,177.424   "/>
            </g>
        </defs>
        <use xlink:href="#mail" transform="translate(0 0 612 612)"/>
    </symbol>

    <symbol viewBox="0 0 512 512" id="location-icon" xmlns="http://www.w3.org/2000/svg">
        <defs>
            <g id="location">
                <path d="M256,0C150.125,0,64,86.135,64,192c0,141.646,177.146,310,184.688,317.104C250.75,511.031,253.375,512,256,512    s5.25-0.969,7.313-2.896C270.854,502,448,333.646,448,192C448,86.135,361.875,0,256,0z M256,298.667    c-58.813,0-106.667-47.854-106.667-106.667S197.188,85.333,256,85.333S362.667,133.188,362.667,192S314.813,298.667,256,298.667z"/>
            </g>
        </defs>
        <use xlink:href="#location" transform="translate(0 0 512 512)"/>
    </symbol>

    <symbol viewBox="0 0 578.106 578.106" id="tel-icon" xmlns="http://www.w3.org/2000/svg">
        <defs>
            <g id="tel">
                <path d="M577.83,456.128c1.225,9.385-1.635,17.545-8.568,24.48l-81.396,80.781    c-3.672,4.08-8.465,7.551-14.381,10.404c-5.916,2.857-11.729,4.693-17.439,5.508c-0.408,0-1.635,0.105-3.676,0.309    c-2.037,0.203-4.689,0.307-7.953,0.307c-7.754,0-20.301-1.326-37.641-3.979s-38.555-9.182-63.645-19.584    c-25.096-10.404-53.553-26.012-85.376-46.818c-31.823-20.805-65.688-49.367-101.592-85.68    c-28.56-28.152-52.224-55.08-70.992-80.783c-18.768-25.705-33.864-49.471-45.288-71.299    c-11.425-21.828-19.993-41.616-25.705-59.364S4.59,177.362,2.55,164.51s-2.856-22.95-2.448-30.294    c0.408-7.344,0.612-11.424,0.612-12.24c0.816-5.712,2.652-11.526,5.508-17.442s6.324-10.71,10.404-14.382L98.022,8.756    c5.712-5.712,12.24-8.568,19.584-8.568c5.304,0,9.996,1.53,14.076,4.59s7.548,6.834,10.404,11.322l65.484,124.236    c3.672,6.528,4.692,13.668,3.06,21.42c-1.632,7.752-5.1,14.28-10.404,19.584l-29.988,29.988c-0.816,0.816-1.53,2.142-2.142,3.978    s-0.918,3.366-0.918,4.59c1.632,8.568,5.304,18.36,11.016,29.376c4.896,9.792,12.444,21.726,22.644,35.802    s24.684,30.293,43.452,48.653c18.36,18.77,34.68,33.354,48.96,43.76c14.277,10.4,26.215,18.053,35.803,22.949    c9.588,4.896,16.932,7.854,22.031,8.871l7.648,1.531c0.816,0,2.145-0.307,3.979-0.918c1.836-0.613,3.162-1.326,3.979-2.143    l34.883-35.496c7.348-6.527,15.912-9.791,25.705-9.791c6.938,0,12.443,1.223,16.523,3.672h0.611l118.115,69.768    C571.098,441.238,576.197,447.968,577.83,456.128z"/>
            </g>
        </defs>
        <use xlink:href="#tel" transform="translate(0 0 578.106 578.106)"/>
    </symbol>

    <symbol viewBox="0 0 47.001 47.001" id="building-icon" xmlns="http://www.w3.org/2000/svg">
        <defs>
            <g id="building">
                <path d="M44.845,42.718H2.136C0.956,42.718,0,43.674,0,44.855c0,1.179,0.956,2.135,2.136,2.135h42.708     c1.18,0,2.136-0.956,2.136-2.135C46.979,43.674,46.023,42.718,44.845,42.718z"/>
                <path d="M4.805,37.165c-1.18,0-2.136,0.956-2.136,2.136s0.956,2.137,2.136,2.137h37.37c1.18,0,2.136-0.957,2.136-2.137     s-0.956-2.136-2.136-2.136h-0.533V17.945h0.533c0.591,0,1.067-0.478,1.067-1.067s-0.478-1.067-1.067-1.067H4.805     c-0.59,0-1.067,0.478-1.067,1.067s0.478,1.067,1.067,1.067h0.534v19.219H4.805z M37.37,17.945v19.219h-6.406V17.945H37.37z      M26.692,17.945v19.219h-6.406V17.945H26.692z M9.609,17.945h6.406v19.219H9.609V17.945z"/>
                <path d="M2.136,13.891h42.708c0.007,0,0.015,0,0.021,0c1.181,0,2.136-0.956,2.136-2.136c0-0.938-0.604-1.733-1.443-2.021     l-21.19-9.535c-0.557-0.25-1.194-0.25-1.752,0L1.26,9.808c-0.919,0.414-1.424,1.412-1.212,2.396     C0.259,13.188,1.129,13.891,2.136,13.891z"/>
            </g>
        </defs>
        <use xlink:href="#building" transform="translate(0 0 47.001 47.001)"/>
    </symbol>

    <symbol viewBox="0 0 111.577 111.577" id="info-icon" xmlns="http://www.w3.org/2000/svg">
        <defs>
            <g id="info">
                <path d="M78.962,99.536l-1.559,6.373c-4.677,1.846-8.413,3.251-11.195,4.217c-2.785,0.969-6.021,1.451-9.708,1.451   c-5.662,0-10.066-1.387-13.207-4.142c-3.141-2.766-4.712-6.271-4.712-10.523c0-1.646,0.114-3.339,0.351-5.064   c0.239-1.727,0.619-3.672,1.139-5.846l5.845-20.688c0.52-1.981,0.962-3.858,1.316-5.633c0.359-1.764,0.532-3.387,0.532-4.848   c0-2.642-0.547-4.49-1.636-5.529c-1.089-1.036-3.167-1.562-6.252-1.562c-1.511,0-3.064,0.242-4.647,0.71   c-1.59,0.47-2.949,0.924-4.09,1.346l1.563-6.378c3.829-1.559,7.489-2.894,10.99-4.002c3.501-1.111,6.809-1.667,9.938-1.667   c5.623,0,9.962,1.359,13.009,4.077c3.047,2.72,4.57,6.246,4.57,10.591c0,0.899-0.1,2.483-0.315,4.747   c-0.21,2.269-0.601,4.348-1.171,6.239l-5.82,20.605c-0.477,1.655-0.906,3.547-1.279,5.676c-0.385,2.115-0.569,3.731-0.569,4.815   c0,2.736,0.61,4.604,1.833,5.597c1.232,0.993,3.354,1.487,6.368,1.487c1.415,0,3.025-0.251,4.814-0.744   C76.854,100.348,78.155,99.915,78.962,99.536z M80.438,13.03c0,3.59-1.353,6.656-4.072,9.177c-2.712,2.53-5.98,3.796-9.803,3.796   c-3.835,0-7.111-1.266-9.854-3.796c-2.738-2.522-4.11-5.587-4.11-9.177c0-3.583,1.372-6.654,4.11-9.207   C59.447,1.274,62.729,0,66.563,0c3.822,0,7.091,1.277,9.803,3.823C79.087,6.376,80.438,9.448,80.438,13.03z"/>
            </g>
        </defs>
        <use xlink:href="#info" transform="translate(0 0 111.577 111.577)"/>
    </symbol>

    <symbol viewBox="0 0 433.5 433.5" id="attach" xmlns="http://www.w3.org/2000/svg">
        <defs>
            <g id="attach_svg">
                <path xmlns="http://www.w3.org/2000/svg" d="M395.25,153h-102V0h-153v153h-102l178.5,178.5L395.25,153z M38.25,382.5v51h357v-51H38.25z"/>
            </g>
        </defs>
        <use xlink:href="#attach_svg" transform="translate(0 0 433.5 433.5)"/>
    </symbol>

</svg>